<svg width="1920" height="985" viewBox="0 0 1920 985" fill="none" xmlns="http://www.w3.org/2000/svg">
<rect width="1920" height="984.848" fill="#00518C"/>
<path d="M279.657 150.676L265 303.423L158.098 229.308L279.657 150.676Z" fill="#14B7DB"/>
<path d="M714.487 233.337L584.61 172.348L681.826 83.9099L714.487 233.337Z" fill="#5F9FFF"/>
<path d="M989.913 351.807L1104.71 441.607L992.282 505.359L989.913 351.807Z" fill="#1930FF"/>
<path d="M1240.56 744.39L1202.57 892.325L1108.6 799.85L1240.56 744.39Z" fill="#4542E5"/>
<path d="M1618.16 265.734L1664.38 120.585L1752.99 219.097L1618.16 265.734Z" fill="#6993FF"/>
<path d="M664.913 410.807L779.714 500.607L667.282 564.359L664.913 410.807Z" fill="#0C78C6"/>
<path d="M1679.91 458.807L1794.71 548.607L1682.28 612.359L1679.91 458.807Z" fill="#00255C"/>
<path d="M134.913 754.807L249.714 844.606L137.282 908.358L134.913 754.807Z" fill="#597C9C"/>
<path d="M1310.8 613.272L1328.67 460.927L1433.98 537.668L1310.8 613.272Z" fill="#5FFFC5"/>
<path d="M1273.91 67.8073L1388.71 157.607L1276.28 221.359L1273.91 67.8073Z" fill="#04758E"/>
<path d="M1511.69 748.622L1642.08 808.302L1545.63 897.714L1511.69 748.622Z" fill="#6B94FF"/>
<path d="M821.941 734.367L818.447 887.893L706.485 823.172L821.941 734.367Z" fill="#209DB8"/>
<path d="M434.311 516.471L405.213 666.763L305.927 581.076L434.311 516.471Z" fill="#A5E4FF"/>
</svg>
